<svg xmlns="http://www.w3.org/2000/svg" width="1200" height="630" viewBox="0 0 1200 630" role="img" aria-label="RoukaDash OGP">
  <rect width="1200" height="630" fill="#f6edda"/>
  <rect x="70" y="70" width="1060" height="420" fill="#fff8e7" stroke="#263142" stroke-width="14"/>
  <rect x="110" y="120" width="980" height="135" fill="#b6dff0" stroke="#263142" stroke-width="8"/>
  <rect x="145" y="150" width="180" height="72" fill="#25364a"/>
  <rect x="360" y="150" width="180" height="72" fill="#25364a"/>
  <rect x="575" y="150" width="180" height="72" fill="#25364a"/>
  <rect x="790" y="150" width="180" height="72" fill="#25364a"/>
  <rect x="110" y="255" width="980" height="180" fill="#e6c48f"/>
  <path d="M110 435H1090L1170 560H30Z" fill="#d9ad72" stroke="#263142" stroke-width="8"/>
  <text x="600" y="350" text-anchor="middle" font-family="Meiryo, sans-serif" font-size="86" font-weight="900" fill="#263142">チャイムまでに帰れ！</text>
  <text x="600" y="425" text-anchor="middle" font-family="Meiryo, sans-serif" font-size="38" font-weight="800" fill="#b0472f">RoukaDash / 16bit学校廊下ダッシュゲーム</text>
  <g transform="translate(190 415)">
    <ellipse cx="58" cy="120" rx="54" ry="16" fill="#5f5343" opacity=".35"/>
    <rect x="26" y="40" width="58" height="88" fill="#121826" stroke="#263142" stroke-width="6"/>
    <rect x="36" y="10" width="42" height="42" fill="#b8794f" stroke="#263142" stroke-width="6"/>
    <path d="M34 8h58l-18 16H42Z" fill="#111"/>
    <path d="M58 0h48L76 16H58Z" fill="#111"/>
    <rect x="12" y="55" width="24" height="62" fill="#121826" stroke="#263142" stroke-width="5"/>
    <rect x="76" y="55" width="24" height="62" fill="#121826" stroke="#263142" stroke-width="5"/>
  </g>
</svg>
